<svg version="1.1" xmlns="http://www.w3.org/2000/svg" xmlns:xlink="http://www.w3.org/1999/xlink" width="929" height="704"><defs><clipPath id="ySuFUSyvHSpf"><path fill="none" stroke="none" d=" M 0 0 L 929 0 L 929 704 L 0 704 L 0 0 Z"/></clipPath></defs><g transform="scale(1,1)" clip-path="url(#ySuFUSyvHSpf)"><g><rect fill="rgb(255,255,255)" stroke="none" x="0" y="0" width="929" height="704" fill-opacity="1"/><path fill="rgb(21,101,192)" stroke="none" paint-order="stroke fill markers" fill-rule="evenodd" d=" M 333.4403942304966 395.57587292997806 L 645.2362723954544 260.81149841333496 L 474.45857945257666 419.7073270856286 Z" fill-opacity="0.24705882352941178"/><path fill="rgb(21,101,192)" stroke="none" paint-order="stroke fill markers" fill-rule="evenodd" d=" M 408.67464498599327 415.4600214306731 L 471.4637022418374 425.71421954089635 L 445.7914250837307 541.5416149941506 Z" fill-opacity="0.24705882352941178"/><path fill="rgb(21,101,192)" stroke="none" paint-order="stroke fill markers" fill-rule="evenodd" d=" M 404.3265408127187 359.3786916965023 L 288.19391768865273 299.80416424974004 L 351.2188090902386 378.6819709368371 Z" fill-opacity="0.24705882352941178"/><path fill="rgb(21,101,192)" stroke="none" paint-order="stroke fill markers" fill-rule="evenodd" d=" M 288.0035290283986 308.9861009213738 L 266.38245493457737 399.73370768135936 L 309.88608929916677 337.2527148162267 Z" fill-opacity="0.24705882352941178"/><path fill="rgb(21,101,192)" stroke="none" paint-order="stroke fill markers" fill-rule="evenodd" d=" M 283.27045832198667 301.77898168140956 L 179.81810170599238 408.57541038585924 L 266.07276678283245 358.8526393168464 Z" fill-opacity="0.24705882352941178"/><path fill="rgb(21,101,192)" stroke="none" paint-order="stroke fill markers" fill-rule="evenodd" d=" M 380.2533986385421 514.3892878202385 L 286.6414106271732 553.1687655814027 L 435.4150871876859 543.4204566418349 Z" fill-opacity="0.24705882352941178"/><path fill="rgb(21,101,192)" stroke="none" paint-order="stroke fill markers" fill-rule="evenodd" d=" M 423.06306955272606 490.7026552903156 L 342.2498526859324 482.69100016990046 L 439.08637979355586 539.469251675451 Z" fill-opacity="0.24705882352941178"/><path fill="rgb(21,101,192)" stroke="none" paint-order="stroke fill markers" fill-rule="evenodd" d=" M 457.16114419198016 333.3815343195829 L 412.0085936009624 275.9146517491949 L 490.4167239078205 321.3898050001734 Z" fill-opacity="0.24705882352941178"/><path fill="rgb(21,101,192)" stroke="none" paint-order="stroke fill markers" fill-rule="evenodd" d=" M 406.7703874219608 280.2187885329385 L 352.19921657575736 290.66053320630715 L 422.6310193426079 302.7277737029322 Z" fill-opacity="0.24705882352941178"/><path fill="rgb(21,101,192)" stroke="none" paint-order="stroke fill markers" fill-rule="evenodd" d=" M 508.7068696385732 310.51695949079703 L 476.56337311433447 261.60133419830595 L 528.492355337109 302.9758933921242 Z" fill-opacity="0.24705882352941178"/><path fill="rgb(21,101,192)" stroke="none" paint-order="stroke fill markers" fill-rule="evenodd" d=" M 472.32008490012726 263.6938239117723 L 422.3278396634563 263.692408681578 L 485.3242225747646 284.184403630652 Z" fill-opacity="0.24705882352941178"/><path fill="rgb(21,101,192)" stroke="none" paint-order="stroke fill markers" fill-rule="evenodd" d=" M 553.7134954134459 292.20395445397645 L 526.3596075664689 246.82908805819207 L 571.3762542079528 284.4239524580467 Z" fill-opacity="0.24705882352941178"/><path fill="rgb(21,101,192)" stroke="none" paint-order="stroke fill markers" fill-rule="evenodd" d=" M 520.2473762357862 248.64247978494336 L 487.5168546974133 244.02175087823403 L 533.482895567015 270.20482327079924 Z" fill-opacity="0.24705882352941178"/><path fill="rgb(21,101,192)" stroke="none" paint-order="stroke fill markers" fill-rule="evenodd" d=" M 599.6280116525203 415.18740656988365 L 544.733345534757 364.96818778393805 L 518.3585328938166 389.38402864308455 Z" fill-opacity="0.24705882352941178"/><path fill="rgb(21,101,192)" stroke="none" paint-order="stroke fill markers" fill-rule="evenodd" d=" M 632.9510270002114 373.9382569952164 L 578.3248310157696 330.6731513504384 L 558.3837251911706 348.62014659257795 Z" fill-opacity="0.24705882352941178"/><path fill="rgb(21,101,192)" stroke="none" paint-order="stroke fill markers" fill-rule="evenodd" d=" M 657.4143958204204 328.6206330126592 L 609.5353220483066 301.2356664782041 L 589.5942162237076 319.1826617203437 Z" fill-opacity="0.24705882352941178"/><path fill="rgb(21,101,192)" stroke="none" paint-order="stroke fill markers" fill-rule="evenodd" d=" M 595.5911450270905 421.9903096922041 L 566.9612462294666 411.8481161764208 L 581.3279668720631 493.25953315113713 Z" fill-opacity="0.24705882352941178"/><path fill="rgb(21,101,192)" stroke="none" paint-order="stroke fill markers" fill-rule="evenodd" d=" M 630.5086125655426 379.052902343715 L 603.3337026477011 369.7880895716033 L 636.8333576383483 426.7759788021591 Z" fill-opacity="0.24705882352941178"/><path fill="rgb(21,101,192)" stroke="none" paint-order="stroke fill markers" fill-rule="evenodd" d=" M 656.7557213400427 334.83956086954174 L 633.4714485443096 331.06748140128235 L 662.3584684232262 384.4135972962668 Z" fill-opacity="0.24705882352941178"/><path fill="rgb(21,101,192)" stroke="none" paint-order="stroke fill markers" fill-rule="evenodd" d=" M 584.9533980143324 280.03412587663206 L 628.369033931263 153.23707065706262 L 643.978363752236 254.5527365905795 Z" fill-opacity="0.22745098039215686"/><path fill="rgb(21,101,192)" stroke="none" paint-order="stroke fill markers" fill-rule="evenodd" d=" M 605.634754099361 197.52671288830356 L 624.0480439171018 147.84186757013592 L 594.2231317100691 99.75680503226556 Z" fill-opacity="0.22745098039215686"/><path fill="rgb(21,101,192)" stroke="none" paint-order="stroke fill markers" fill-rule="evenodd" d=" M 588.0045560076616 97.37197137185592 L 524.0940298497344 77.89447768562991 L 592.8739294292179 145.4570339097262 Z" fill-opacity="0.22745098039215686"/><path fill="rgb(21,101,192)" stroke="none" paint-order="stroke fill markers" fill-rule="evenodd" d=" M 519.7069459860323 80.61768306078926 L 463.9708520802054 108.85494418739137 L 537.0209476235785 98.38181220984654 Z" fill-opacity="0.22745098039215686"/><path fill="rgb(21,101,192)" stroke="none" paint-order="stroke fill markers" fill-rule="evenodd" d=" M 479.12193526711525 126.54556394680719 L 496.3963489845016 163.73865440229042 L 494.69031459820576 112.70700454139308 Z" fill-opacity="0.22745098039215686"/><path fill="rgb(21,101,192)" stroke="none" paint-order="stroke fill markers" fill-rule="evenodd" d=" M 488.8874568303437 110.90665427943031 L 461.91914198816653 114.57225047157095 L 447.5185855190428 141.8023936131875 Z" fill-opacity="0.22745098039215686"/><path fill="none" stroke="rgb(21,101,192)" paint-order="fill stroke markers" d=" M 333.4403942304966 395.57587292997806 L 645.2362723954544 260.81149841333496" stroke-opacity="0.8" stroke-linecap="round" stroke-linejoin="round" stroke-miterlimit="10"/><path fill="none" stroke="rgb(21,101,192)" paint-order="fill stroke markers" d=" M 645.2362723954544 260.81149841333496 L 474.45857945257666 419.7073270856286" stroke-opacity="0.8" stroke-linecap="round" stroke-linejoin="round" stroke-miterlimit="10"/><path fill="none" stroke="rgb(21,101,192)" paint-order="fill stroke markers" d=" M 474.45857945257666 419.7073270856286 L 333.4403942304966 395.57587292997806" stroke-opacity="0.8" stroke-linecap="round" stroke-linejoin="round" stroke-miterlimit="10"/><path fill="none" stroke="rgb(21,101,192)" paint-order="fill stroke markers" d=" M 408.67464498599327 415.4600214306731 L 471.4637022418374 425.71421954089635" stroke-opacity="0.8" stroke-linecap="round" stroke-linejoin="round" stroke-miterlimit="10"/><path fill="none" stroke="rgb(21,101,192)" paint-order="fill stroke markers" d=" M 471.4637022418374 425.71421954089635 L 445.7914250837307 541.5416149941506" stroke-opacity="0.8" stroke-linecap="round" stroke-linejoin="round" stroke-miterlimit="10"/><path fill="none" stroke="rgb(21,101,192)" paint-order="fill stroke markers" d=" M 445.7914250837307 541.5416149941506 L 408.67464498599327 415.4600214306731" stroke-opacity="0.8" stroke-linecap="round" stroke-linejoin="round" stroke-miterlimit="10"/><path fill="none" stroke="rgb(21,101,192)" paint-order="fill stroke markers" d=" M 404.3265408127187 359.3786916965023 L 288.19391768865273 299.80416424974004" stroke-opacity="0.8" stroke-linecap="round" stroke-linejoin="round" stroke-miterlimit="10"/><path fill="none" stroke="rgb(21,101,192)" paint-order="fill stroke markers" d=" M 288.19391768865273 299.80416424974004 L 351.2188090902386 378.6819709368371" stroke-opacity="0.8" stroke-linecap="round" stroke-linejoin="round" stroke-miterlimit="10"/><path fill="none" stroke="rgb(21,101,192)" paint-order="fill stroke markers" d=" M 351.2188090902386 378.6819709368371 L 404.3265408127187 359.3786916965023" stroke-opacity="0.8" stroke-linecap="round" stroke-linejoin="round" stroke-miterlimit="10"/><path fill="none" stroke="rgb(21,101,192)" paint-order="fill stroke markers" d=" M 288.0035290283986 308.9861009213738 L 266.38245493457737 399.73370768135936" stroke-opacity="0.8" stroke-linecap="round" stroke-linejoin="round" stroke-miterlimit="10"/><path fill="none" stroke="rgb(21,101,192)" paint-order="fill stroke markers" d=" M 266.38245493457737 399.73370768135936 L 309.88608929916677 337.2527148162267" stroke-opacity="0.8" stroke-linecap="round" stroke-linejoin="round" stroke-miterlimit="10"/><path fill="none" stroke="rgb(21,101,192)" paint-order="fill stroke markers" d=" M 309.88608929916677 337.2527148162267 L 288.0035290283986 308.9861009213738" stroke-opacity="0.8" stroke-linecap="round" stroke-linejoin="round" stroke-miterlimit="10"/><path fill="none" stroke="rgb(21,101,192)" paint-order="fill stroke markers" d=" M 283.27045832198667 301.77898168140956 L 179.81810170599238 408.57541038585924" stroke-opacity="0.8" stroke-linecap="round" stroke-linejoin="round" stroke-miterlimit="10"/><path fill="none" stroke="rgb(21,101,192)" paint-order="fill stroke markers" d=" M 179.81810170599238 408.57541038585924 L 266.07276678283245 358.8526393168464" stroke-opacity="0.8" stroke-linecap="round" stroke-linejoin="round" stroke-miterlimit="10"/><path fill="none" stroke="rgb(21,101,192)" paint-order="fill stroke markers" d=" M 266.07276678283245 358.8526393168464 L 283.27045832198667 301.77898168140956" stroke-opacity="0.8" stroke-linecap="round" stroke-linejoin="round" stroke-miterlimit="10"/><path fill="none" stroke="rgb(21,101,192)" paint-order="fill stroke markers" d=" M 380.2533986385421 514.3892878202385 L 286.6414106271732 553.1687655814027" stroke-opacity="0.8" stroke-linecap="round" stroke-linejoin="round" stroke-miterlimit="10"/><path fill="none" stroke="rgb(21,101,192)" paint-order="fill stroke markers" d=" M 286.6414106271732 553.1687655814027 L 435.4150871876859 543.4204566418349" stroke-opacity="0.8" stroke-linecap="round" stroke-linejoin="round" stroke-miterlimit="10"/><path fill="none" stroke="rgb(21,101,192)" paint-order="fill stroke markers" d=" M 435.4150871876859 543.4204566418349 L 380.2533986385421 514.3892878202385" stroke-opacity="0.8" stroke-linecap="round" stroke-linejoin="round" stroke-miterlimit="10"/><path fill="none" stroke="rgb(21,101,192)" paint-order="fill stroke markers" d=" M 423.06306955272606 490.7026552903156 L 342.2498526859324 482.69100016990046" stroke-opacity="0.8" stroke-linecap="round" stroke-linejoin="round" stroke-miterlimit="10"/><path fill="none" stroke="rgb(21,101,192)" paint-order="fill stroke markers" d=" M 342.2498526859324 482.69100016990046 L 439.08637979355586 539.469251675451" stroke-opacity="0.8" stroke-linecap="round" stroke-linejoin="round" stroke-miterlimit="10"/><path fill="none" stroke="rgb(21,101,192)" paint-order="fill stroke markers" d=" M 439.08637979355586 539.469251675451 L 423.06306955272606 490.7026552903156" stroke-opacity="0.8" stroke-linecap="round" stroke-linejoin="round" stroke-miterlimit="10"/><path fill="none" stroke="rgb(21,101,192)" paint-order="fill stroke markers" d=" M 457.16114419198016 333.3815343195829 L 412.0085936009624 275.9146517491949" stroke-opacity="0.8" stroke-linecap="round" stroke-linejoin="round" stroke-miterlimit="10"/><path fill="none" stroke="rgb(21,101,192)" paint-order="fill stroke markers" d=" M 412.0085936009624 275.9146517491949 L 490.4167239078205 321.3898050001734" stroke-opacity="0.8" stroke-linecap="round" stroke-linejoin="round" stroke-miterlimit="10"/><path fill="none" stroke="rgb(21,101,192)" paint-order="fill stroke markers" d=" M 490.4167239078205 321.3898050001734 L 457.16114419198016 333.3815343195829" stroke-opacity="0.8" stroke-linecap="round" stroke-linejoin="round" stroke-miterlimit="10"/><path fill="none" stroke="rgb(21,101,192)" paint-order="fill stroke markers" d=" M 406.7703874219608 280.2187885329385 L 352.19921657575736 290.66053320630715" stroke-opacity="0.8" stroke-linecap="round" stroke-linejoin="round" stroke-miterlimit="10"/><path fill="none" stroke="rgb(21,101,192)" paint-order="fill stroke markers" d=" M 352.19921657575736 290.66053320630715 L 422.6310193426079 302.7277737029322" stroke-opacity="0.8" stroke-linecap="round" stroke-linejoin="round" stroke-miterlimit="10"/><path fill="none" stroke="rgb(21,101,192)" paint-order="fill stroke markers" d=" M 422.6310193426079 302.7277737029322 L 406.7703874219608 280.2187885329385" stroke-opacity="0.8" stroke-linecap="round" stroke-linejoin="round" stroke-miterlimit="10"/><path fill="none" stroke="rgb(21,101,192)" paint-order="fill stroke markers" d=" M 508.7068696385732 310.51695949079703 L 476.56337311433447 261.60133419830595" stroke-opacity="0.8" stroke-linecap="round" stroke-linejoin="round" stroke-miterlimit="10"/><path fill="none" stroke="rgb(21,101,192)" paint-order="fill stroke markers" d=" M 476.56337311433447 261.60133419830595 L 528.492355337109 302.9758933921242" stroke-opacity="0.8" stroke-linecap="round" stroke-linejoin="round" stroke-miterlimit="10"/><path fill="none" stroke="rgb(21,101,192)" paint-order="fill stroke markers" d=" M 528.492355337109 302.9758933921242 L 508.7068696385732 310.51695949079703" stroke-opacity="0.8" stroke-linecap="round" stroke-linejoin="round" stroke-miterlimit="10"/><path fill="none" stroke="rgb(21,101,192)" paint-order="fill stroke markers" d=" M 472.32008490012726 263.6938239117723 L 422.3278396634563 263.692408681578" stroke-opacity="0.8" stroke-linecap="round" stroke-linejoin="round" stroke-miterlimit="10"/><path fill="none" stroke="rgb(21,101,192)" paint-order="fill stroke markers" d=" M 422.3278396634563 263.692408681578 L 485.3242225747646 284.184403630652" stroke-opacity="0.8" stroke-linecap="round" stroke-linejoin="round" stroke-miterlimit="10"/><path fill="none" stroke="rgb(21,101,192)" paint-order="fill stroke markers" d=" M 485.3242225747646 284.184403630652 L 472.32008490012726 263.6938239117723" stroke-opacity="0.8" stroke-linecap="round" stroke-linejoin="round" stroke-miterlimit="10"/><path fill="none" stroke="rgb(21,101,192)" paint-order="fill stroke markers" d=" M 553.7134954134459 292.20395445397645 L 526.3596075664689 246.82908805819207" stroke-opacity="0.8" stroke-linecap="round" stroke-linejoin="round" stroke-miterlimit="10"/><path fill="none" stroke="rgb(21,101,192)" paint-order="fill stroke markers" d=" M 526.3596075664689 246.82908805819207 L 571.3762542079528 284.4239524580467" stroke-opacity="0.8" stroke-linecap="round" stroke-linejoin="round" stroke-miterlimit="10"/><path fill="none" stroke="rgb(21,101,192)" paint-order="fill stroke markers" d=" M 571.3762542079528 284.4239524580467 L 553.7134954134459 292.20395445397645" stroke-opacity="0.8" stroke-linecap="round" stroke-linejoin="round" stroke-miterlimit="10"/><path fill="none" stroke="rgb(21,101,192)" paint-order="fill stroke markers" d=" M 520.2473762357862 248.64247978494336 L 487.5168546974133 244.02175087823403" stroke-opacity="0.8" stroke-linecap="round" stroke-linejoin="round" stroke-miterlimit="10"/><path fill="none" stroke="rgb(21,101,192)" paint-order="fill stroke markers" d=" M 487.5168546974133 244.02175087823403 L 533.482895567015 270.20482327079924" stroke-opacity="0.8" stroke-linecap="round" stroke-linejoin="round" stroke-miterlimit="10"/><path fill="none" stroke="rgb(21,101,192)" paint-order="fill stroke markers" d=" M 533.482895567015 270.20482327079924 L 520.2473762357862 248.64247978494336" stroke-opacity="0.8" stroke-linecap="round" stroke-linejoin="round" stroke-miterlimit="10"/><path fill="none" stroke="rgb(21,101,192)" paint-order="fill stroke markers" d=" M 599.6280116525203 415.18740656988365 L 544.733345534757 364.96818778393805" stroke-opacity="0.8" stroke-linecap="round" stroke-linejoin="round" stroke-miterlimit="10"/><path fill="none" stroke="rgb(21,101,192)" paint-order="fill stroke markers" d=" M 544.733345534757 364.96818778393805 L 518.3585328938166 389.38402864308455" stroke-opacity="0.8" stroke-linecap="round" stroke-linejoin="round" stroke-miterlimit="10"/><path fill="none" stroke="rgb(21,101,192)" paint-order="fill stroke markers" d=" M 518.3585328938166 389.38402864308455 L 599.6280116525203 415.18740656988365" stroke-opacity="0.8" stroke-linecap="round" stroke-linejoin="round" stroke-miterlimit="10"/><path fill="none" stroke="rgb(21,101,192)" paint-order="fill stroke markers" d=" M 632.9510270002114 373.9382569952164 L 578.3248310157696 330.6731513504384" stroke-opacity="0.8" stroke-linecap="round" stroke-linejoin="round" stroke-miterlimit="10"/><path fill="none" stroke="rgb(21,101,192)" paint-order="fill stroke markers" d=" M 578.3248310157696 330.6731513504384 L 558.3837251911706 348.62014659257795" stroke-opacity="0.8" stroke-linecap="round" stroke-linejoin="round" stroke-miterlimit="10"/><path fill="none" stroke="rgb(21,101,192)" paint-order="fill stroke markers" d=" M 558.3837251911706 348.62014659257795 L 632.9510270002114 373.9382569952164" stroke-opacity="0.8" stroke-linecap="round" stroke-linejoin="round" stroke-miterlimit="10"/><path fill="none" stroke="rgb(21,101,192)" paint-order="fill stroke markers" d=" M 657.4143958204204 328.6206330126592 L 609.5353220483066 301.2356664782041" stroke-opacity="0.8" stroke-linecap="round" stroke-linejoin="round" stroke-miterlimit="10"/><path fill="none" stroke="rgb(21,101,192)" paint-order="fill stroke markers" d=" M 609.5353220483066 301.2356664782041 L 589.5942162237076 319.1826617203437" stroke-opacity="0.8" stroke-linecap="round" stroke-linejoin="round" stroke-miterlimit="10"/><path fill="none" stroke="rgb(21,101,192)" paint-order="fill stroke markers" d=" M 589.5942162237076 319.1826617203437 L 657.4143958204204 328.6206330126592" stroke-opacity="0.8" stroke-linecap="round" stroke-linejoin="round" stroke-miterlimit="10"/><path fill="none" stroke="rgb(21,101,192)" paint-order="fill stroke markers" d=" M 595.5911450270905 421.9903096922041 L 566.9612462294666 411.8481161764208" stroke-opacity="0.8" stroke-linecap="round" stroke-linejoin="round" stroke-miterlimit="10"/><path fill="none" stroke="rgb(21,101,192)" paint-order="fill stroke markers" d=" M 566.9612462294666 411.8481161764208 L 581.3279668720631 493.25953315113713" stroke-opacity="0.8" stroke-linecap="round" stroke-linejoin="round" stroke-miterlimit="10"/><path fill="none" stroke="rgb(21,101,192)" paint-order="fill stroke markers" d=" M 581.3279668720631 493.25953315113713 L 595.5911450270905 421.9903096922041" stroke-opacity="0.8" stroke-linecap="round" stroke-linejoin="round" stroke-miterlimit="10"/><path fill="none" stroke="rgb(21,101,192)" paint-order="fill stroke markers" d=" M 630.5086125655426 379.052902343715 L 603.3337026477011 369.7880895716033" stroke-opacity="0.8" stroke-linecap="round" stroke-linejoin="round" stroke-miterlimit="10"/><path fill="none" stroke="rgb(21,101,192)" paint-order="fill stroke markers" d=" M 603.3337026477011 369.7880895716033 L 636.8333576383483 426.7759788021591" stroke-opacity="0.8" stroke-linecap="round" stroke-linejoin="round" stroke-miterlimit="10"/><path fill="none" stroke="rgb(21,101,192)" paint-order="fill stroke markers" d=" M 636.8333576383483 426.7759788021591 L 630.5086125655426 379.052902343715" stroke-opacity="0.8" stroke-linecap="round" stroke-linejoin="round" stroke-miterlimit="10"/><path fill="none" stroke="rgb(21,101,192)" paint-order="fill stroke markers" d=" M 656.7557213400427 334.83956086954174 L 633.4714485443096 331.06748140128235" stroke-opacity="0.8" stroke-linecap="round" stroke-linejoin="round" stroke-miterlimit="10"/><path fill="none" stroke="rgb(21,101,192)" paint-order="fill stroke markers" d=" M 633.4714485443096 331.06748140128235 L 662.3584684232262 384.4135972962668" stroke-opacity="0.8" stroke-linecap="round" stroke-linejoin="round" stroke-miterlimit="10"/><path fill="none" stroke="rgb(21,101,192)" paint-order="fill stroke markers" d=" M 662.3584684232262 384.4135972962668 L 656.7557213400427 334.83956086954174" stroke-opacity="0.8" stroke-linecap="round" stroke-linejoin="round" stroke-miterlimit="10"/><path fill="none" stroke="rgb(21,101,192)" paint-order="fill stroke markers" d=" M 584.9533980143324 280.03412587663206 L 628.369033931263 153.23707065706262" stroke-opacity="0.8" stroke-linecap="round" stroke-linejoin="round" stroke-miterlimit="10"/><path fill="none" stroke="rgb(21,101,192)" paint-order="fill stroke markers" d=" M 628.369033931263 153.23707065706262 L 643.978363752236 254.5527365905795" stroke-opacity="0.8" stroke-linecap="round" stroke-linejoin="round" stroke-miterlimit="10"/><path fill="none" stroke="rgb(21,101,192)" paint-order="fill stroke markers" d=" M 643.978363752236 254.5527365905795 L 584.9533980143324 280.03412587663206" stroke-opacity="0.8" stroke-linecap="round" stroke-linejoin="round" stroke-miterlimit="10"/><path fill="none" stroke="rgb(21,101,192)" paint-order="fill stroke markers" d=" M 605.634754099361 197.52671288830356 L 624.0480439171018 147.84186757013592" stroke-opacity="0.8" stroke-linecap="round" stroke-linejoin="round" stroke-miterlimit="10"/><path fill="none" stroke="rgb(21,101,192)" paint-order="fill stroke markers" d=" M 624.0480439171018 147.84186757013592 L 594.2231317100691 99.75680503226556" stroke-opacity="0.8" stroke-linecap="round" stroke-linejoin="round" stroke-miterlimit="10"/><path fill="none" stroke="rgb(21,101,192)" paint-order="fill stroke markers" d=" M 594.2231317100691 99.75680503226556 L 605.634754099361 197.52671288830356" stroke-opacity="0.8" stroke-linecap="round" stroke-linejoin="round" stroke-miterlimit="10"/><path fill="none" stroke="rgb(21,101,192)" paint-order="fill stroke markers" d=" M 588.0045560076616 97.37197137185592 L 524.0940298497344 77.89447768562991" stroke-opacity="0.8" stroke-linecap="round" stroke-linejoin="round" stroke-miterlimit="10"/><path fill="none" stroke="rgb(21,101,192)" paint-order="fill stroke markers" d=" M 524.0940298497344 77.89447768562991 L 592.8739294292179 145.4570339097262" stroke-opacity="0.8" stroke-linecap="round" stroke-linejoin="round" stroke-miterlimit="10"/><path fill="none" stroke="rgb(21,101,192)" paint-order="fill stroke markers" d=" M 592.8739294292179 145.4570339097262 L 588.0045560076616 97.37197137185592" stroke-opacity="0.8" stroke-linecap="round" stroke-linejoin="round" stroke-miterlimit="10"/><path fill="none" stroke="rgb(21,101,192)" paint-order="fill stroke markers" d=" M 519.7069459860323 80.61768306078926 L 463.9708520802054 108.85494418739137" stroke-opacity="0.8" stroke-linecap="round" stroke-linejoin="round" stroke-miterlimit="10"/><path fill="none" stroke="rgb(21,101,192)" paint-order="fill stroke markers" d=" M 463.9708520802054 108.85494418739137 L 537.0209476235785 98.38181220984654" stroke-opacity="0.8" stroke-linecap="round" stroke-linejoin="round" stroke-miterlimit="10"/><path fill="none" stroke="rgb(21,101,192)" paint-order="fill stroke markers" d=" M 537.0209476235785 98.38181220984654 L 519.7069459860323 80.61768306078926" stroke-opacity="0.8" stroke-linecap="round" stroke-linejoin="round" stroke-miterlimit="10"/><path fill="none" stroke="rgb(21,101,192)" paint-order="fill stroke markers" d=" M 479.12193526711525 126.54556394680719 L 496.3963489845016 163.73865440229042" stroke-opacity="0.8" stroke-linecap="round" stroke-linejoin="round" stroke-miterlimit="10"/><path fill="none" stroke="rgb(21,101,192)" paint-order="fill stroke markers" d=" M 496.3963489845016 163.73865440229042 L 494.69031459820576 112.70700454139308" stroke-opacity="0.8" stroke-linecap="round" stroke-linejoin="round" stroke-miterlimit="10"/><path fill="none" stroke="rgb(21,101,192)" paint-order="fill stroke markers" d=" M 494.69031459820576 112.70700454139308 L 479.12193526711525 126.54556394680719" stroke-opacity="0.8" stroke-linecap="round" stroke-linejoin="round" stroke-miterlimit="10"/><path fill="none" stroke="rgb(21,101,192)" paint-order="fill stroke markers" d=" M 488.8874568303437 110.90665427943031 L 461.91914198816653 114.57225047157095" stroke-opacity="0.8" stroke-linecap="round" stroke-linejoin="round" stroke-miterlimit="10"/><path fill="none" stroke="rgb(21,101,192)" paint-order="fill stroke markers" d=" M 461.91914198816653 114.57225047157095 L 447.5185855190428 141.8023936131875" stroke-opacity="0.8" stroke-linecap="round" stroke-linejoin="round" stroke-miterlimit="10"/><path fill="none" stroke="rgb(21,101,192)" paint-order="fill stroke markers" d=" M 447.5185855190428 141.8023936131875 L 488.8874568303437 110.90665427943031" stroke-opacity="0.8" stroke-linecap="round" stroke-linejoin="round" stroke-miterlimit="10"/><path fill="none" stroke="rgb(21,101,192)" paint-order="fill stroke markers" d=" M 334.4403942304966 395.57587292997806 C 334.4403942304966 396.12815767980885 333.9926789803274 396.57587292997806 333.4403942304966 396.57587292997806 C 332.88810948066583 396.57587292997806 332.4403942304966 396.12815767980885 332.4403942304966 395.57587292997806 C 332.4403942304966 395.02358818014727 332.88810948066583 394.57587292997806 333.4403942304966 394.57587292997806 C 333.9926789803274 394.57587292997806 334.4403942304966 395.02358818014727 334.4403942304966 395.57587292997806 Z" stroke-opacity="1" stroke-linecap="square" stroke-miterlimit="10" stroke-width="0.5"/><path fill="none" stroke="rgb(21,101,192)" paint-order="fill stroke markers" d=" M 646.2362723954544 260.81149841333496 C 646.2362723954544 261.36378316316575 645.7885571452853 261.81149841333496 645.2362723954544 261.81149841333496 C 644.6839876456236 261.81149841333496 644.2362723954544 261.36378316316575 644.2362723954544 260.81149841333496 C 644.2362723954544 260.25921366350417 644.6839876456236 259.81149841333496 645.2362723954544 259.81149841333496 C 645.7885571452853 259.81149841333496 646.2362723954544 260.25921366350417 646.2362723954544 260.81149841333496 Z" stroke-opacity="1" stroke-linecap="square" stroke-miterlimit="10" stroke-width="0.5"/><path fill="none" stroke="rgb(21,101,192)" paint-order="fill stroke markers" d=" M 475.45857945257666 419.7073270856286 C 475.45857945257666 420.2596118354594 475.01086420240745 420.7073270856286 474.45857945257666 420.7073270856286 C 473.90629470274587 420.7073270856286 473.45857945257666 420.2596118354594 473.45857945257666 419.7073270856286 C 473.45857945257666 419.1550423357978 473.90629470274587 418.7073270856286 474.45857945257666 418.7073270856286 C 475.01086420240745 418.7073270856286 475.45857945257666 419.1550423357978 475.45857945257666 419.7073270856286 Z" stroke-opacity="1" stroke-linecap="square" stroke-miterlimit="10" stroke-width="0.5"/><path fill="none" stroke="rgb(255,255,255)" paint-order="fill stroke markers" d=" M 409.67464498599327 415.4600214306731 C 409.67464498599327 416.0123061805039 409.22692973582406 416.4600214306731 408.67464498599327 416.4600214306731 C 408.1223602361625 416.4600214306731 407.67464498599327 416.0123061805039 407.67464498599327 415.4600214306731 C 407.67464498599327 414.90773668084233 408.1223602361625 414.4600214306731 408.67464498599327 414.4600214306731 C 409.22692973582406 414.4600214306731 409.67464498599327 414.90773668084233 409.67464498599327 415.4600214306731 Z" stroke-opacity="1" stroke-linecap="square" stroke-miterlimit="10" stroke-width="0.5"/><path fill="none" stroke="rgb(255,255,255)" paint-order="fill stroke markers" d=" M 472.4637022418374 425.71421954089635 C 472.4637022418374 426.26650429072714 472.01598699166817 426.71421954089635 471.4637022418374 426.71421954089635 C 470.9114174920066 426.71421954089635 470.4637022418374 426.26650429072714 470.4637022418374 425.71421954089635 C 470.4637022418374 425.16193479106556 470.9114174920066 424.71421954089635 471.4637022418374 424.71421954089635 C 472.01598699166817 424.71421954089635 472.4637022418374 425.16193479106556 472.4637022418374 425.71421954089635 Z" stroke-opacity="1" stroke-linecap="square" stroke-miterlimit="10" stroke-width="0.5"/><path fill="none" stroke="rgb(255,255,255)" paint-order="fill stroke markers" d=" M 446.7914250837307 541.5416149941506 C 446.7914250837307 542.0938997439814 446.3437098335615 542.5416149941506 445.7914250837307 542.5416149941506 C 445.2391403338999 542.5416149941506 444.7914250837307 542.0938997439814 444.7914250837307 541.5416149941506 C 444.7914250837307 540.9893302443197 445.2391403338999 540.5416149941506 445.7914250837307 540.5416149941506 C 446.3437098335615 540.5416149941506 446.7914250837307 540.9893302443197 446.7914250837307 541.5416149941506 Z" stroke-opacity="1" stroke-linecap="square" stroke-miterlimit="10" stroke-width="0.5"/><path fill="none" stroke="rgb(255,255,255)" paint-order="fill stroke markers" d=" M 405.3265408127187 359.3786916965023 C 405.3265408127187 359.9309764463331 404.8788255625495 360.3786916965023 404.3265408127187 360.3786916965023 C 403.7742560628879 360.3786916965023 403.3265408127187 359.9309764463331 403.3265408127187 359.3786916965023 C 403.3265408127187 358.8264069466715 403.7742560628879 358.3786916965023 404.3265408127187 358.3786916965023 C 404.8788255625495 358.3786916965023 405.3265408127187 358.8264069466715 405.3265408127187 359.3786916965023 Z" stroke-opacity="1" stroke-linecap="square" stroke-miterlimit="10" stroke-width="0.5"/><path fill="none" stroke="rgb(255,255,255)" paint-order="fill stroke markers" d=" M 289.19391768865273 299.80416424974004 C 289.19391768865273 300.35644899957083 288.7462024384835 300.80416424974004 288.19391768865273 300.80416424974004 C 287.64163293882194 300.80416424974004 287.19391768865273 300.35644899957083 287.19391768865273 299.80416424974004 C 287.19391768865273 299.25187949990925 287.64163293882194 298.80416424974004 288.19391768865273 298.80416424974004 C 288.7462024384835 298.80416424974004 289.19391768865273 299.25187949990925 289.19391768865273 299.80416424974004 Z" stroke-opacity="1" stroke-linecap="square" stroke-miterlimit="10" stroke-width="0.5"/><path fill="none" stroke="rgb(255,255,255)" paint-order="fill stroke markers" d=" M 352.2188090902386 378.6819709368371 C 352.2188090902386 379.2342556866679 351.7710938400694 379.6819709368371 351.2188090902386 379.6819709368371 C 350.6665243404078 379.6819709368371 350.2188090902386 379.2342556866679 350.2188090902386 378.6819709368371 C 350.2188090902386 378.1296861870063 350.6665243404078 377.6819709368371 351.2188090902386 377.6819709368371 C 351.7710938400694 377.6819709368371 352.2188090902386 378.1296861870063 352.2188090902386 378.6819709368371 Z" stroke-opacity="1" stroke-linecap="square" stroke-miterlimit="10" stroke-width="0.5"/><path fill="none" stroke="rgb(255,255,255)" paint-order="fill stroke markers" d=" M 289.0035290283986 308.9861009213738 C 289.0035290283986 309.5383856712046 288.5558137782294 309.9861009213738 288.0035290283986 309.9861009213738 C 287.4512442785678 309.9861009213738 287.0035290283986 309.5383856712046 287.0035290283986 308.9861009213738 C 287.0035290283986 308.433816171543 287.4512442785678 307.9861009213738 288.0035290283986 307.9861009213738 C 288.5558137782294 307.9861009213738 289.0035290283986 308.433816171543 289.0035290283986 308.9861009213738 Z" stroke-opacity="1" stroke-linecap="square" stroke-miterlimit="10" stroke-width="0.5"/><path fill="none" stroke="rgb(255,255,255)" paint-order="fill stroke markers" d=" M 267.38245493457737 399.73370768135936 C 267.38245493457737 400.28599243119015 266.93473968440816 400.73370768135936 266.38245493457737 400.73370768135936 C 265.8301701847466 400.73370768135936 265.38245493457737 400.28599243119015 265.38245493457737 399.73370768135936 C 265.38245493457737 399.1814229315286 265.8301701847466 398.73370768135936 266.38245493457737 398.73370768135936 C 266.93473968440816 398.73370768135936 267.38245493457737 399.1814229315286 267.38245493457737 399.73370768135936 Z" stroke-opacity="1" stroke-linecap="square" stroke-miterlimit="10" stroke-width="0.5"/><path fill="none" stroke="rgb(255,255,255)" paint-order="fill stroke markers" d=" M 310.88608929916677 337.2527148162267 C 310.88608929916677 337.8049995660575 310.43837404899756 338.2527148162267 309.88608929916677 338.2527148162267 C 309.333804549336 338.2527148162267 308.88608929916677 337.8049995660575 308.88608929916677 337.2527148162267 C 308.88608929916677 336.70043006639594 309.333804549336 336.2527148162267 309.88608929916677 336.2527148162267 C 310.43837404899756 336.2527148162267 310.88608929916677 336.70043006639594 310.88608929916677 337.2527148162267 Z" stroke-opacity="1" stroke-linecap="square" stroke-miterlimit="10" stroke-width="0.5"/><path fill="none" stroke="rgb(255,255,255)" paint-order="fill stroke markers" d=" M 284.27045832198667 301.77898168140956 C 284.27045832198667 302.33126643124035 283.82274307181746 302.77898168140956 283.27045832198667 302.77898168140956 C 282.7181735721559 302.77898168140956 282.27045832198667 302.33126643124035 282.27045832198667 301.77898168140956 C 282.27045832198667 301.2266969315788 282.7181735721559 300.77898168140956 283.27045832198667 300.77898168140956 C 283.82274307181746 300.77898168140956 284.27045832198667 301.2266969315788 284.27045832198667 301.77898168140956 Z" stroke-opacity="1" stroke-linecap="square" stroke-miterlimit="10" stroke-width="0.5"/><path fill="none" stroke="rgb(255,255,255)" paint-order="fill stroke markers" d=" M 180.81810170599238 408.57541038585924 C 180.81810170599238 409.12769513569003 180.37038645582317 409.57541038585924 179.81810170599238 409.57541038585924 C 179.2658169561616 409.57541038585924 178.81810170599238 409.12769513569003 178.81810170599238 408.57541038585924 C 178.81810170599238 408.02312563602845 179.2658169561616 407.57541038585924 179.81810170599238 407.57541038585924 C 180.37038645582317 407.57541038585924 180.81810170599238 408.02312563602845 180.81810170599238 408.57541038585924 Z" stroke-opacity="1" stroke-linecap="square" stroke-miterlimit="10" stroke-width="0.5"/><path fill="none" stroke="rgb(255,255,255)" paint-order="fill stroke markers" d=" M 267.07276678283245 358.8526393168464 C 267.07276678283245 359.4049240666772 266.62505153266324 359.8526393168464 266.07276678283245 359.8526393168464 C 265.52048203300166 359.8526393168464 265.07276678283245 359.4049240666772 265.07276678283245 358.8526393168464 C 265.07276678283245 358.30035456701563 265.52048203300166 357.8526393168464 266.07276678283245 357.8526393168464 C 266.62505153266324 357.8526393168464 267.07276678283245 358.30035456701563 267.07276678283245 358.8526393168464 Z" stroke-opacity="1" stroke-linecap="square" stroke-miterlimit="10" stroke-width="0.5"/><path fill="none" stroke="rgb(255,255,255)" paint-order="fill stroke markers" d=" M 381.2533986385421 514.3892878202385 C 381.2533986385421 514.9415725700693 380.80568338837287 515.3892878202385 380.2533986385421 515.3892878202385 C 379.7011138887113 515.3892878202385 379.2533986385421 514.9415725700693 379.2533986385421 514.3892878202385 C 379.2533986385421 513.8370030704076 379.7011138887113 513.3892878202385 380.2533986385421 513.3892878202385 C 380.80568338837287 513.3892878202385 381.2533986385421 513.8370030704076 381.2533986385421 514.3892878202385 Z" stroke-opacity="1" stroke-linecap="square" stroke-miterlimit="10" stroke-width="0.5"/><path fill="none" stroke="rgb(255,255,255)" paint-order="fill stroke markers" d=" M 287.6414106271732 553.1687655814027 C 287.6414106271732 553.7210503312335 287.19369537700396 554.1687655814027 286.6414106271732 554.1687655814027 C 286.0891258773424 554.1687655814027 285.6414106271732 553.7210503312335 285.6414106271732 553.1687655814027 C 285.6414106271732 552.6164808315718 286.0891258773424 552.1687655814027 286.6414106271732 552.1687655814027 C 287.19369537700396 552.1687655814027 287.6414106271732 552.6164808315718 287.6414106271732 553.1687655814027 Z" stroke-opacity="1" stroke-linecap="square" stroke-miterlimit="10" stroke-width="0.5"/><path fill="none" stroke="rgb(255,255,255)" paint-order="fill stroke markers" d=" M 436.4150871876859 543.4204566418349 C 436.4150871876859 543.9727413916657 435.9673719375167 544.4204566418349 435.4150871876859 544.4204566418349 C 434.8628024378551 544.4204566418349 434.4150871876859 543.9727413916657 434.4150871876859 543.4204566418349 C 434.4150871876859 542.868171892004 434.8628024378551 542.4204566418349 435.4150871876859 542.4204566418349 C 435.9673719375167 542.4204566418349 436.4150871876859 542.868171892004 436.4150871876859 543.4204566418349 Z" stroke-opacity="1" stroke-linecap="square" stroke-miterlimit="10" stroke-width="0.5"/><path fill="none" stroke="rgb(255,255,255)" paint-order="fill stroke markers" d=" M 424.06306955272606 490.7026552903156 C 424.06306955272606 491.2549400401464 423.61535430255685 491.7026552903156 423.06306955272606 491.7026552903156 C 422.5107848028953 491.7026552903156 422.06306955272606 491.2549400401464 422.06306955272606 490.7026552903156 C 422.06306955272606 490.1503705404848 422.5107848028953 489.7026552903156 423.06306955272606 489.7026552903156 C 423.61535430255685 489.7026552903156 424.06306955272606 490.1503705404848 424.06306955272606 490.7026552903156 Z" stroke-opacity="1" stroke-linecap="square" stroke-miterlimit="10" stroke-width="0.5"/><path fill="none" stroke="rgb(255,255,255)" paint-order="fill stroke markers" d=" M 343.2498526859324 482.69100016990046 C 343.2498526859324 483.24328491973125 342.8021374357632 483.69100016990046 342.2498526859324 483.69100016990046 C 341.6975679361016 483.69100016990046 341.2498526859324 483.24328491973125 341.2498526859324 482.69100016990046 C 341.2498526859324 482.1387154200697 341.6975679361016 481.69100016990046 342.2498526859324 481.69100016990046 C 342.8021374357632 481.69100016990046 343.2498526859324 482.1387154200697 343.2498526859324 482.69100016990046 Z" stroke-opacity="1" stroke-linecap="square" stroke-miterlimit="10" stroke-width="0.5"/><path fill="none" stroke="rgb(255,255,255)" paint-order="fill stroke markers" d=" M 440.08637979355586 539.469251675451 C 440.08637979355586 540.0215364252819 439.63866454338665 540.469251675451 439.08637979355586 540.469251675451 C 438.5340950437251 540.469251675451 438.08637979355586 540.0215364252819 438.08637979355586 539.469251675451 C 438.08637979355586 538.9169669256202 438.5340950437251 538.469251675451 439.08637979355586 538.469251675451 C 439.63866454338665 538.469251675451 440.08637979355586 538.9169669256202 440.08637979355586 539.469251675451 Z" stroke-opacity="1" stroke-linecap="square" stroke-miterlimit="10" stroke-width="0.5"/><path fill="none" stroke="rgb(255,255,255)" paint-order="fill stroke markers" d=" M 458.16114419198016 333.3815343195829 C 458.16114419198016 333.9338190694137 457.71342894181095 334.3815343195829 457.16114419198016 334.3815343195829 C 456.60885944214937 334.3815343195829 456.16114419198016 333.9338190694137 456.16114419198016 333.3815343195829 C 456.16114419198016 332.8292495697521 456.60885944214937 332.3815343195829 457.16114419198016 332.3815343195829 C 457.71342894181095 332.3815343195829 458.16114419198016 332.8292495697521 458.16114419198016 333.3815343195829 Z" stroke-opacity="1" stroke-linecap="square" stroke-miterlimit="10" stroke-width="0.5"/><path fill="none" stroke="rgb(255,255,255)" paint-order="fill stroke markers" d=" M 413.0085936009624 275.9146517491949 C 413.0085936009624 276.4669364990257 412.5608783507932 276.9146517491949 412.0085936009624 276.9146517491949 C 411.4563088511316 276.9146517491949 411.0085936009624 276.4669364990257 411.0085936009624 275.9146517491949 C 411.0085936009624 275.3623669993641 411.4563088511316 274.9146517491949 412.0085936009624 274.9146517491949 C 412.5608783507932 274.9146517491949 413.0085936009624 275.3623669993641 413.0085936009624 275.9146517491949 Z" stroke-opacity="1" stroke-linecap="square" stroke-miterlimit="10" stroke-width="0.5"/><path fill="none" stroke="rgb(255,255,255)" paint-order="fill stroke markers" d=" M 491.4167239078205 321.3898050001734 C 491.4167239078205 321.9420897500042 490.9690086576513 322.3898050001734 490.4167239078205 322.3898050001734 C 489.8644391579897 322.3898050001734 489.4167239078205 321.9420897500042 489.4167239078205 321.3898050001734 C 489.4167239078205 320.8375202503426 489.8644391579897 320.3898050001734 490.4167239078205 320.3898050001734 C 490.9690086576513 320.3898050001734 491.4167239078205 320.8375202503426 491.4167239078205 321.3898050001734 Z" stroke-opacity="1" stroke-linecap="square" stroke-miterlimit="10" stroke-width="0.5"/><path fill="none" stroke="rgb(255,255,255)" paint-order="fill stroke markers" d=" M 407.7703874219608 280.2187885329385 C 407.7703874219608 280.7710732827693 407.32267217179157 281.2187885329385 406.7703874219608 281.2187885329385 C 406.21810267213 281.2187885329385 405.7703874219608 280.7710732827693 405.7703874219608 280.2187885329385 C 405.7703874219608 279.6665037831077 406.21810267213 279.2187885329385 406.7703874219608 279.2187885329385 C 407.32267217179157 279.2187885329385 407.7703874219608 279.6665037831077 407.7703874219608 280.2187885329385 Z" stroke-opacity="1" stroke-linecap="square" stroke-miterlimit="10" stroke-width="0.5"/><path fill="none" stroke="rgb(255,255,255)" paint-order="fill stroke markers" d=" M 353.19921657575736 290.66053320630715 C 353.19921657575736 291.21281795613794 352.75150132558815 291.66053320630715 352.19921657575736 291.66053320630715 C 351.6469318259266 291.66053320630715 351.19921657575736 291.21281795613794 351.19921657575736 290.66053320630715 C 351.19921657575736 290.10824845647636 351.6469318259266 289.66053320630715 352.19921657575736 289.66053320630715 C 352.75150132558815 289.66053320630715 353.19921657575736 290.10824845647636 353.19921657575736 290.66053320630715 Z" stroke-opacity="1" stroke-linecap="square" stroke-miterlimit="10" stroke-width="0.5"/><path fill="none" stroke="rgb(255,255,255)" paint-order="fill stroke markers" d=" M 423.6310193426079 302.7277737029322 C 423.6310193426079 303.280058452763 423.1833040924387 303.7277737029322 422.6310193426079 303.7277737029322 C 422.0787345927771 303.7277737029322 421.6310193426079 303.280058452763 421.6310193426079 302.7277737029322 C 421.6310193426079 302.1754889531014 422.0787345927771 301.7277737029322 422.6310193426079 301.7277737029322 C 423.1833040924387 301.7277737029322 423.6310193426079 302.1754889531014 423.6310193426079 302.7277737029322 Z" stroke-opacity="1" stroke-linecap="square" stroke-miterlimit="10" stroke-width="0.5"/><path fill="none" stroke="rgb(255,255,255)" paint-order="fill stroke markers" d=" M 509.7068696385732 310.51695949079703 C 509.7068696385732 311.0692442406278 509.259154388404 311.51695949079703 508.7068696385732 311.51695949079703 C 508.1545848887424 311.51695949079703 507.7068696385732 311.0692442406278 507.7068696385732 310.51695949079703 C 507.7068696385732 309.96467474096625 508.1545848887424 309.51695949079703 508.7068696385732 309.51695949079703 C 509.259154388404 309.51695949079703 509.7068696385732 309.96467474096625 509.7068696385732 310.51695949079703 Z" stroke-opacity="1" stroke-linecap="square" stroke-miterlimit="10" stroke-width="0.5"/><path fill="none" stroke="rgb(255,255,255)" paint-order="fill stroke markers" d=" M 477.56337311433447 261.60133419830595 C 477.56337311433447 262.15361894813674 477.11565786416526 262.60133419830595 476.56337311433447 262.60133419830595 C 476.0110883645037 262.60133419830595 475.56337311433447 262.15361894813674 475.56337311433447 261.60133419830595 C 475.56337311433447 261.04904944847516 476.0110883645037 260.60133419830595 476.56337311433447 260.60133419830595 C 477.11565786416526 260.60133419830595 477.56337311433447 261.04904944847516 477.56337311433447 261.60133419830595 Z" stroke-opacity="1" stroke-linecap="square" stroke-miterlimit="10" stroke-width="0.5"/><path fill="none" stroke="rgb(255,255,255)" paint-order="fill stroke markers" d=" M 529.492355337109 302.9758933921242 C 529.492355337109 303.528178141955 529.0446400869398 303.9758933921242 528.492355337109 303.9758933921242 C 527.9400705872781 303.9758933921242 527.492355337109 303.528178141955 527.492355337109 302.9758933921242 C 527.492355337109 302.4236086422934 527.9400705872781 301.9758933921242 528.492355337109 301.9758933921242 C 529.0446400869398 301.9758933921242 529.492355337109 302.4236086422934 529.492355337109 302.9758933921242 Z" stroke-opacity="1" stroke-linecap="square" stroke-miterlimit="10" stroke-width="0.5"/><path fill="none" stroke="rgb(255,255,255)" paint-order="fill stroke markers" d=" M 473.32008490012726 263.6938239117723 C 473.32008490012726 264.2461086616031 472.87236964995805 264.6938239117723 472.32008490012726 264.6938239117723 C 471.76780015029647 264.6938239117723 471.32008490012726 264.2461086616031 471.32008490012726 263.6938239117723 C 471.32008490012726 263.1415391619415 471.76780015029647 262.6938239117723 472.32008490012726 262.6938239117723 C 472.87236964995805 262.6938239117723 473.32008490012726 263.1415391619415 473.32008490012726 263.6938239117723 Z" stroke-opacity="1" stroke-linecap="square" stroke-miterlimit="10" stroke-width="0.5"/><path fill="none" stroke="rgb(255,255,255)" paint-order="fill stroke markers" d=" M 423.3278396634563 263.692408681578 C 423.3278396634563 264.2446934314088 422.8801244132871 264.692408681578 422.3278396634563 264.692408681578 C 421.7755549136255 264.692408681578 421.3278396634563 264.2446934314088 421.3278396634563 263.692408681578 C 421.3278396634563 263.1401239317472 421.7755549136255 262.692408681578 422.3278396634563 262.692408681578 C 422.8801244132871 262.692408681578 423.3278396634563 263.1401239317472 423.3278396634563 263.692408681578 Z" stroke-opacity="1" stroke-linecap="square" stroke-miterlimit="10" stroke-width="0.5"/><path fill="none" stroke="rgb(255,255,255)" paint-order="fill stroke markers" d=" M 486.3242225747646 284.184403630652 C 486.3242225747646 284.7366883804828 485.87650732459537 285.184403630652 485.3242225747646 285.184403630652 C 484.7719378249338 285.184403630652 484.3242225747646 284.7366883804828 484.3242225747646 284.184403630652 C 484.3242225747646 283.6321188808212 484.7719378249338 283.184403630652 485.3242225747646 283.184403630652 C 485.87650732459537 283.184403630652 486.3242225747646 283.6321188808212 486.3242225747646 284.184403630652 Z" stroke-opacity="1" stroke-linecap="square" stroke-miterlimit="10" stroke-width="0.5"/><path fill="none" stroke="rgb(255,255,255)" paint-order="fill stroke markers" d=" M 554.7134954134459 292.20395445397645 C 554.7134954134459 292.75623920380724 554.2657801632768 293.20395445397645 553.7134954134459 293.20395445397645 C 553.1612106636151 293.20395445397645 552.7134954134459 292.75623920380724 552.7134954134459 292.20395445397645 C 552.7134954134459 291.65166970414566 553.1612106636151 291.20395445397645 553.7134954134459 291.20395445397645 C 554.2657801632768 291.20395445397645 554.7134954134459 291.65166970414566 554.7134954134459 292.20395445397645 Z" stroke-opacity="1" stroke-linecap="square" stroke-miterlimit="10" stroke-width="0.5"/><path fill="none" stroke="rgb(255,255,255)" paint-order="fill stroke markers" d=" M 527.3596075664689 246.82908805819207 C 527.3596075664689 247.38137280802286 526.9118923162997 247.82908805819207 526.3596075664689 247.82908805819207 C 525.807322816638 247.82908805819207 525.3596075664689 247.38137280802286 525.3596075664689 246.82908805819207 C 525.3596075664689 246.27680330836128 525.807322816638 245.82908805819207 526.3596075664689 245.82908805819207 C 526.9118923162997 245.82908805819207 527.3596075664689 246.27680330836128 527.3596075664689 246.82908805819207 Z" stroke-opacity="1" stroke-linecap="square" stroke-miterlimit="10" stroke-width="0.5"/><path fill="none" stroke="rgb(255,255,255)" paint-order="fill stroke markers" d=" M 572.3762542079528 284.4239524580467 C 572.3762542079528 284.9762372078775 571.9285389577836 285.4239524580467 571.3762542079528 285.4239524580467 C 570.823969458122 285.4239524580467 570.3762542079528 284.9762372078775 570.3762542079528 284.4239524580467 C 570.3762542079528 283.8716677082159 570.823969458122 283.4239524580467 571.3762542079528 283.4239524580467 C 571.9285389577836 283.4239524580467 572.3762542079528 283.8716677082159 572.3762542079528 284.4239524580467 Z" stroke-opacity="1" stroke-linecap="square" stroke-miterlimit="10" stroke-width="0.5"/><path fill="none" stroke="rgb(255,255,255)" paint-order="fill stroke markers" d=" M 521.2473762357862 248.64247978494336 C 521.2473762357862 249.19476453477415 520.799660985617 249.64247978494336 520.2473762357862 249.64247978494336 C 519.6950914859553 249.64247978494336 519.2473762357862 249.19476453477415 519.2473762357862 248.64247978494336 C 519.2473762357862 248.09019503511257 519.6950914859553 247.64247978494336 520.2473762357862 247.64247978494336 C 520.799660985617 247.64247978494336 521.2473762357862 248.09019503511257 521.2473762357862 248.64247978494336 Z" stroke-opacity="1" stroke-linecap="square" stroke-miterlimit="10" stroke-width="0.5"/><path fill="none" stroke="rgb(255,255,255)" paint-order="fill stroke markers" d=" M 488.5168546974133 244.02175087823403 C 488.5168546974133 244.57403562806482 488.0691394472441 245.02175087823403 487.5168546974133 245.02175087823403 C 486.9645699475825 245.02175087823403 486.5168546974133 244.57403562806482 486.5168546974133 244.02175087823403 C 486.5168546974133 243.46946612840324 486.9645699475825 243.02175087823403 487.5168546974133 243.02175087823403 C 488.0691394472441 243.02175087823403 488.5168546974133 243.46946612840324 488.5168546974133 244.02175087823403 Z" stroke-opacity="1" stroke-linecap="square" stroke-miterlimit="10" stroke-width="0.5"/><path fill="none" stroke="rgb(255,255,255)" paint-order="fill stroke markers" d=" M 534.482895567015 270.20482327079924 C 534.482895567015 270.75710802063 534.0351803168459 271.20482327079924 533.482895567015 271.20482327079924 C 532.9306108171842 271.20482327079924 532.482895567015 270.75710802063 532.482895567015 270.20482327079924 C 532.482895567015 269.65253852096845 532.9306108171842 269.20482327079924 533.482895567015 269.20482327079924 C 534.0351803168459 269.20482327079924 534.482895567015 269.65253852096845 534.482895567015 270.20482327079924 Z" stroke-opacity="1" stroke-linecap="square" stroke-miterlimit="10" stroke-width="0.5"/><path fill="none" stroke="rgb(255,255,255)" paint-order="fill stroke markers" d=" M 600.6280116525203 415.18740656988365 C 600.6280116525203 415.73969131971444 600.1802964023511 416.18740656988365 599.6280116525203 416.18740656988365 C 599.0757269026894 416.18740656988365 598.6280116525203 415.73969131971444 598.6280116525203 415.18740656988365 C 598.6280116525203 414.63512182005286 599.0757269026894 414.18740656988365 599.6280116525203 414.18740656988365 C 600.1802964023511 414.18740656988365 600.6280116525203 414.63512182005286 600.6280116525203 415.18740656988365 Z" stroke-opacity="1" stroke-linecap="square" stroke-miterlimit="10" stroke-width="0.5"/><path fill="none" stroke="rgb(255,255,255)" paint-order="fill stroke markers" d=" M 545.733345534757 364.96818778393805 C 545.733345534757 365.52047253376884 545.2856302845878 365.96818778393805 544.733345534757 365.96818778393805 C 544.1810607849261 365.96818778393805 543.733345534757 365.52047253376884 543.733345534757 364.96818778393805 C 543.733345534757 364.41590303410726 544.1810607849261 363.96818778393805 544.733345534757 363.96818778393805 C 545.2856302845878 363.96818778393805 545.733345534757 364.41590303410726 545.733345534757 364.96818778393805 Z" stroke-opacity="1" stroke-linecap="square" stroke-miterlimit="10" stroke-width="0.5"/><path fill="none" stroke="rgb(255,255,255)" paint-order="fill stroke markers" d=" M 519.3585328938166 389.38402864308455 C 519.3585328938166 389.93631339291534 518.9108176436474 390.38402864308455 518.3585328938166 390.38402864308455 C 517.8062481439857 390.38402864308455 517.3585328938166 389.93631339291534 517.3585328938166 389.38402864308455 C 517.3585328938166 388.83174389325376 517.8062481439857 388.38402864308455 518.3585328938166 388.38402864308455 C 518.9108176436474 388.38402864308455 519.3585328938166 388.83174389325376 519.3585328938166 389.38402864308455 Z" stroke-opacity="1" stroke-linecap="square" stroke-miterlimit="10" stroke-width="0.5"/><path fill="none" stroke="rgb(255,255,255)" paint-order="fill stroke markers" d=" M 633.9510270002114 373.9382569952164 C 633.9510270002114 374.4905417450472 633.5033117500423 374.9382569952164 632.9510270002114 374.9382569952164 C 632.3987422503806 374.9382569952164 631.9510270002114 374.4905417450472 631.9510270002114 373.9382569952164 C 631.9510270002114 373.38597224538563 632.3987422503806 372.9382569952164 632.9510270002114 372.9382569952164 C 633.5033117500423 372.9382569952164 633.9510270002114 373.38597224538563 633.9510270002114 373.9382569952164 Z" stroke-opacity="1" stroke-linecap="square" stroke-miterlimit="10" stroke-width="0.5"/><path fill="none" stroke="rgb(255,255,255)" paint-order="fill stroke markers" d=" M 579.3248310157696 330.6731513504384 C 579.3248310157696 331.2254361002692 578.8771157656005 331.6731513504384 578.3248310157696 331.6731513504384 C 577.7725462659388 331.6731513504384 577.3248310157696 331.2254361002692 577.3248310157696 330.6731513504384 C 577.3248310157696 330.1208666006076 577.7725462659388 329.6731513504384 578.3248310157696 329.6731513504384 C 578.8771157656005 329.6731513504384 579.3248310157696 330.1208666006076 579.3248310157696 330.6731513504384 Z" stroke-opacity="1" stroke-linecap="square" stroke-miterlimit="10" stroke-width="0.5"/><path fill="none" stroke="rgb(255,255,255)" paint-order="fill stroke markers" d=" M 559.3837251911706 348.62014659257795 C 559.3837251911706 349.17243134240874 558.9360099410014 349.62014659257795 558.3837251911706 349.62014659257795 C 557.8314404413397 349.62014659257795 557.3837251911706 349.17243134240874 557.3837251911706 348.62014659257795 C 557.3837251911706 348.06786184274716 557.8314404413397 347.62014659257795 558.3837251911706 347.62014659257795 C 558.9360099410014 347.62014659257795 559.3837251911706 348.06786184274716 559.3837251911706 348.62014659257795 Z" stroke-opacity="1" stroke-linecap="square" stroke-miterlimit="10" stroke-width="0.5"/><path fill="none" stroke="rgb(255,255,255)" paint-order="fill stroke markers" d=" M 658.4143958204204 328.6206330126592 C 658.4143958204204 329.17291776249 657.9666805702512 329.6206330126592 657.4143958204204 329.6206330126592 C 656.8621110705895 329.6206330126592 656.4143958204204 329.17291776249 656.4143958204204 328.6206330126592 C 656.4143958204204 328.0683482628284 656.8621110705895 327.6206330126592 657.4143958204204 327.6206330126592 C 657.9666805702512 327.6206330126592 658.4143958204204 328.0683482628284 658.4143958204204 328.6206330126592 Z" stroke-opacity="1" stroke-linecap="square" stroke-miterlimit="10" stroke-width="0.5"/><path fill="none" stroke="rgb(255,255,255)" paint-order="fill stroke markers" d=" M 610.5353220483066 301.2356664782041 C 610.5353220483066 301.7879512280349 610.0876067981375 302.2356664782041 609.5353220483066 302.2356664782041 C 608.9830372984758 302.2356664782041 608.5353220483066 301.7879512280349 608.5353220483066 301.2356664782041 C 608.5353220483066 300.6833817283733 608.9830372984758 300.2356664782041 609.5353220483066 300.2356664782041 C 610.0876067981375 300.2356664782041 610.5353220483066 300.6833817283733 610.5353220483066 301.2356664782041 Z" stroke-opacity="1" stroke-linecap="square" stroke-miterlimit="10" stroke-width="0.5"/><path fill="none" stroke="rgb(255,255,255)" paint-order="fill stroke markers" d=" M 590.5942162237076 319.1826617203437 C 590.5942162237076 319.73494647017446 590.1465009735384 320.1826617203437 589.5942162237076 320.1826617203437 C 589.0419314738767 320.1826617203437 588.5942162237076 319.73494647017446 588.5942162237076 319.1826617203437 C 588.5942162237076 318.6303769705129 589.0419314738767 318.1826617203437 589.5942162237076 318.1826617203437 C 590.1465009735384 318.1826617203437 590.5942162237076 318.6303769705129 590.5942162237076 319.1826617203437 Z" stroke-opacity="1" stroke-linecap="square" stroke-miterlimit="10" stroke-width="0.5"/><path fill="none" stroke="rgb(255,255,255)" paint-order="fill stroke markers" d=" M 596.5911450270905 421.9903096922041 C 596.5911450270905 422.5425944420349 596.1434297769214 422.9903096922041 595.5911450270905 422.9903096922041 C 595.0388602772597 422.9903096922041 594.5911450270905 422.5425944420349 594.5911450270905 421.9903096922041 C 594.5911450270905 421.4380249423733 595.0388602772597 420.9903096922041 595.5911450270905 420.9903096922041 C 596.1434297769214 420.9903096922041 596.5911450270905 421.4380249423733 596.5911450270905 421.9903096922041 Z" stroke-opacity="1" stroke-linecap="square" stroke-miterlimit="10" stroke-width="0.5"/><path fill="none" stroke="rgb(255,255,255)" paint-order="fill stroke markers" d=" M 567.9612462294666 411.8481161764208 C 567.9612462294666 412.40040092625156 567.5135309792975 412.8481161764208 566.9612462294666 412.8481161764208 C 566.4089614796358 412.8481161764208 565.9612462294666 412.40040092625156 565.9612462294666 411.8481161764208 C 565.9612462294666 411.29583142659 566.4089614796358 410.8481161764208 566.9612462294666 410.8481161764208 C 567.5135309792975 410.8481161764208 567.9612462294666 411.29583142659 567.9612462294666 411.8481161764208 Z" stroke-opacity="1" stroke-linecap="square" stroke-miterlimit="10" stroke-width="0.5"/><path fill="none" stroke="rgb(255,255,255)" paint-order="fill stroke markers" d=" M 582.3279668720631 493.25953315113713 C 582.3279668720631 493.8118179009679 581.880251621894 494.25953315113713 581.3279668720631 494.25953315113713 C 580.7756821222323 494.25953315113713 580.3279668720631 493.8118179009679 580.3279668720631 493.25953315113713 C 580.3279668720631 492.70724840130634 580.7756821222323 492.25953315113713 581.3279668720631 492.25953315113713 C 581.880251621894 492.25953315113713 582.3279668720631 492.70724840130634 582.3279668720631 493.25953315113713 Z" stroke-opacity="1" stroke-linecap="square" stroke-miterlimit="10" stroke-width="0.5"/><path fill="none" stroke="rgb(255,255,255)" paint-order="fill stroke markers" d=" M 631.5086125655426 379.052902343715 C 631.5086125655426 379.6051870935458 631.0608973153735 380.052902343715 630.5086125655426 380.052902343715 C 629.9563278157118 380.052902343715 629.5086125655426 379.6051870935458 629.5086125655426 379.052902343715 C 629.5086125655426 378.5006175938842 629.9563278157118 378.052902343715 630.5086125655426 378.052902343715 C 631.0608973153735 378.052902343715 631.5086125655426 378.5006175938842 631.5086125655426 379.052902343715 Z" stroke-opacity="1" stroke-linecap="square" stroke-miterlimit="10" stroke-width="0.5"/><path fill="none" stroke="rgb(255,255,255)" paint-order="fill stroke markers" d=" M 604.3337026477011 369.7880895716033 C 604.3337026477011 370.34037432143407 603.885987397532 370.7880895716033 603.3337026477011 370.7880895716033 C 602.7814178978703 370.7880895716033 602.3337026477011 370.34037432143407 602.3337026477011 369.7880895716033 C 602.3337026477011 369.2358048217725 602.7814178978703 368.7880895716033 603.3337026477011 368.7880895716033 C 603.885987397532 368.7880895716033 604.3337026477011 369.2358048217725 604.3337026477011 369.7880895716033 Z" stroke-opacity="1" stroke-linecap="square" stroke-miterlimit="10" stroke-width="0.5"/><path fill="none" stroke="rgb(255,255,255)" paint-order="fill stroke markers" d=" M 637.8333576383483 426.7759788021591 C 637.8333576383483 427.3282635519899 637.3856423881791 427.7759788021591 636.8333576383483 427.7759788021591 C 636.2810728885174 427.7759788021591 635.8333576383483 427.3282635519899 635.8333576383483 426.7759788021591 C 635.8333576383483 426.2236940523283 636.2810728885174 425.7759788021591 636.8333576383483 425.7759788021591 C 637.3856423881791 425.7759788021591 637.8333576383483 426.2236940523283 637.8333576383483 426.7759788021591 Z" stroke-opacity="1" stroke-linecap="square" stroke-miterlimit="10" stroke-width="0.5"/><path fill="none" stroke="rgb(255,255,255)" paint-order="fill stroke markers" d=" M 657.7557213400427 334.83956086954174 C 657.7557213400427 335.39184561937253 657.3080060898735 335.83956086954174 656.7557213400427 335.83956086954174 C 656.2034365902118 335.83956086954174 655.7557213400427 335.39184561937253 655.7557213400427 334.83956086954174 C 655.7557213400427 334.28727611971095 656.2034365902118 333.83956086954174 656.7557213400427 333.83956086954174 C 657.3080060898735 333.83956086954174 657.7557213400427 334.28727611971095 657.7557213400427 334.83956086954174 Z" stroke-opacity="1" stroke-linecap="square" stroke-miterlimit="10" stroke-width="0.5"/><path fill="none" stroke="rgb(255,255,255)" paint-order="fill stroke markers" d=" M 634.4714485443096 331.06748140128235 C 634.4714485443096 331.61976615111314 634.0237332941405 332.06748140128235 633.4714485443096 332.06748140128235 C 632.9191637944788 332.06748140128235 632.4714485443096 331.61976615111314 632.4714485443096 331.06748140128235 C 632.4714485443096 330.51519665145156 632.9191637944788 330.06748140128235 633.4714485443096 330.06748140128235 C 634.0237332941405 330.06748140128235 634.4714485443096 330.51519665145156 634.4714485443096 331.06748140128235 Z" stroke-opacity="1" stroke-linecap="square" stroke-miterlimit="10" stroke-width="0.5"/><path fill="none" stroke="rgb(255,255,255)" paint-order="fill stroke markers" d=" M 663.3584684232262 384.4135972962668 C 663.3584684232262 384.9658820460976 662.9107531730571 385.4135972962668 662.3584684232262 385.4135972962668 C 661.8061836733954 385.4135972962668 661.3584684232262 384.9658820460976 661.3584684232262 384.4135972962668 C 661.3584684232262 383.861312546436 661.8061836733954 383.4135972962668 662.3584684232262 383.4135972962668 C 662.9107531730571 383.4135972962668 663.3584684232262 383.861312546436 663.3584684232262 384.4135972962668 Z" stroke-opacity="1" stroke-linecap="square" stroke-miterlimit="10" stroke-width="0.5"/><path fill="none" stroke="rgb(255,255,255)" paint-order="fill stroke markers" d=" M 585.9533980143324 280.03412587663206 C 585.9533980143324 280.58641062646285 585.5056827641632 281.03412587663206 584.9533980143324 281.03412587663206 C 584.4011132645015 281.03412587663206 583.9533980143324 280.58641062646285 583.9533980143324 280.03412587663206 C 583.9533980143324 279.48184112680127 584.4011132645015 279.03412587663206 584.9533980143324 279.03412587663206 C 585.5056827641632 279.03412587663206 585.9533980143324 279.48184112680127 585.9533980143324 280.03412587663206 Z" stroke-opacity="1" stroke-linecap="square" stroke-miterlimit="10" stroke-width="0.5"/><path fill="none" stroke="rgb(255,255,255)" paint-order="fill stroke markers" d=" M 629.369033931263 153.23707065706262 C 629.369033931263 153.7893554068934 628.9213186810938 154.23707065706262 628.369033931263 154.23707065706262 C 627.8167491814321 154.23707065706262 627.369033931263 153.7893554068934 627.369033931263 153.23707065706262 C 627.369033931263 152.68478590723183 627.8167491814321 152.23707065706262 628.369033931263 152.23707065706262 C 628.9213186810938 152.23707065706262 629.369033931263 152.68478590723183 629.369033931263 153.23707065706262 Z" stroke-opacity="1" stroke-linecap="square" stroke-miterlimit="10" stroke-width="0.5"/><path fill="none" stroke="rgb(255,255,255)" paint-order="fill stroke markers" d=" M 644.978363752236 254.5527365905795 C 644.978363752236 255.1050213404103 644.5306485020668 255.5527365905795 643.978363752236 255.5527365905795 C 643.4260790024051 255.5527365905795 642.978363752236 255.1050213404103 642.978363752236 254.5527365905795 C 642.978363752236 254.00045184074872 643.4260790024051 253.5527365905795 643.978363752236 253.5527365905795 C 644.5306485020668 253.5527365905795 644.978363752236 254.00045184074872 644.978363752236 254.5527365905795 Z" stroke-opacity="1" stroke-linecap="square" stroke-miterlimit="10" stroke-width="0.5"/><path fill="none" stroke="rgb(255,255,255)" paint-order="fill stroke markers" d=" M 606.634754099361 197.52671288830356 C 606.634754099361 198.07899763813435 606.1870388491918 198.52671288830356 605.634754099361 198.52671288830356 C 605.0824693495301 198.52671288830356 604.634754099361 198.07899763813435 604.634754099361 197.52671288830356 C 604.634754099361 196.97442813847277 605.0824693495301 196.52671288830356 605.634754099361 196.52671288830356 C 606.1870388491918 196.52671288830356 606.634754099361 196.97442813847277 606.634754099361 197.52671288830356 Z" stroke-opacity="1" stroke-linecap="square" stroke-miterlimit="10" stroke-width="0.5"/><path fill="none" stroke="rgb(255,255,255)" paint-order="fill stroke markers" d=" M 625.0480439171018 147.84186757013592 C 625.0480439171018 148.3941523199667 624.6003286669327 148.84186757013592 624.0480439171018 148.84186757013592 C 623.495759167271 148.84186757013592 623.0480439171018 148.3941523199667 623.0480439171018 147.84186757013592 C 623.0480439171018 147.28958282030513 623.495759167271 146.84186757013592 624.0480439171018 146.84186757013592 C 624.6003286669327 146.84186757013592 625.0480439171018 147.28958282030513 625.0480439171018 147.84186757013592 Z" stroke-opacity="1" stroke-linecap="square" stroke-miterlimit="10" stroke-width="0.5"/><path fill="none" stroke="rgb(255,255,255)" paint-order="fill stroke markers" d=" M 595.2231317100691 99.75680503226556 C 595.2231317100691 100.30908978209635 594.7754164598999 100.75680503226556 594.2231317100691 100.75680503226556 C 593.6708469602382 100.75680503226556 593.2231317100691 100.30908978209635 593.2231317100691 99.75680503226556 C 593.2231317100691 99.20452028243477 593.6708469602382 98.75680503226556 594.2231317100691 98.75680503226556 C 594.7754164598999 98.75680503226556 595.2231317100691 99.20452028243477 595.2231317100691 99.75680503226556 Z" stroke-opacity="1" stroke-linecap="square" stroke-miterlimit="10" stroke-width="0.5"/><path fill="none" stroke="rgb(255,255,255)" paint-order="fill stroke markers" d=" M 589.0045560076616 97.37197137185592 C 589.0045560076616 97.92425612168671 588.5568407574924 98.37197137185592 588.0045560076616 98.37197137185592 C 587.4522712578307 98.37197137185592 587.0045560076616 97.92425612168671 587.0045560076616 97.37197137185592 C 587.0045560076616 96.81968662202513 587.4522712578307 96.37197137185592 588.0045560076616 96.37197137185592 C 588.5568407574924 96.37197137185592 589.0045560076616 96.81968662202513 589.0045560076616 97.37197137185592 Z" stroke-opacity="1" stroke-linecap="square" stroke-miterlimit="10" stroke-width="0.5"/><path fill="none" stroke="rgb(255,255,255)" paint-order="fill stroke markers" d=" M 525.0940298497344 77.89447768562991 C 525.0940298497344 78.4467624354607 524.6463145995652 78.89447768562991 524.0940298497344 78.89447768562991 C 523.5417450999036 78.89447768562991 523.0940298497344 78.4467624354607 523.0940298497344 77.89447768562991 C 523.0940298497344 77.34219293579912 523.5417450999036 76.89447768562991 524.0940298497344 76.89447768562991 C 524.6463145995652 76.89447768562991 525.0940298497344 77.34219293579912 525.0940298497344 77.89447768562991 Z" stroke-opacity="1" stroke-linecap="square" stroke-miterlimit="10" stroke-width="0.5"/><path fill="none" stroke="rgb(255,255,255)" paint-order="fill stroke markers" d=" M 593.8739294292179 145.4570339097262 C 593.8739294292179 146.00931865955698 593.4262141790488 146.4570339097262 592.8739294292179 146.4570339097262 C 592.3216446793871 146.4570339097262 591.8739294292179 146.00931865955698 591.8739294292179 145.4570339097262 C 591.8739294292179 144.9047491598954 592.3216446793871 144.4570339097262 592.8739294292179 144.4570339097262 C 593.4262141790488 144.4570339097262 593.8739294292179 144.9047491598954 593.8739294292179 145.4570339097262 Z" stroke-opacity="1" stroke-linecap="square" stroke-miterlimit="10" stroke-width="0.5"/><path fill="none" stroke="rgb(255,255,255)" paint-order="fill stroke markers" d=" M 520.7069459860323 80.61768306078926 C 520.7069459860323 81.16996781062005 520.2592307358632 81.61768306078926 519.7069459860323 81.61768306078926 C 519.1546612362015 81.61768306078926 518.7069459860323 81.16996781062005 518.7069459860323 80.61768306078926 C 518.7069459860323 80.06539831095847 519.1546612362015 79.61768306078926 519.7069459860323 79.61768306078926 C 520.2592307358632 79.61768306078926 520.7069459860323 80.06539831095847 520.7069459860323 80.61768306078926 Z" stroke-opacity="1" stroke-linecap="square" stroke-miterlimit="10" stroke-width="0.5"/><path fill="none" stroke="rgb(255,255,255)" paint-order="fill stroke markers" d=" M 464.9708520802054 108.85494418739137 C 464.9708520802054 109.40722893722216 464.5231368300362 109.85494418739137 463.9708520802054 109.85494418739137 C 463.41856733037463 109.85494418739137 462.9708520802054 109.40722893722216 462.9708520802054 108.85494418739137 C 462.9708520802054 108.30265943756058 463.41856733037463 107.85494418739137 463.9708520802054 107.85494418739137 C 464.5231368300362 107.85494418739137 464.9708520802054 108.30265943756058 464.9708520802054 108.85494418739137 Z" stroke-opacity="1" stroke-linecap="square" stroke-miterlimit="10" stroke-width="0.5"/><path fill="none" stroke="rgb(255,255,255)" paint-order="fill stroke markers" d=" M 538.0209476235785 98.38181220984654 C 538.0209476235785 98.93409695967733 537.5732323734094 99.38181220984654 537.0209476235785 99.38181220984654 C 536.4686628737477 99.38181220984654 536.0209476235785 98.93409695967733 536.0209476235785 98.38181220984654 C 536.0209476235785 97.82952746001575 536.4686628737477 97.38181220984654 537.0209476235785 97.38181220984654 C 537.5732323734094 97.38181220984654 538.0209476235785 97.82952746001575 538.0209476235785 98.38181220984654 Z" stroke-opacity="1" stroke-linecap="square" stroke-miterlimit="10" stroke-width="0.5"/><path fill="none" stroke="rgb(255,255,255)" paint-order="fill stroke markers" d=" M 480.12193526711525 126.54556394680719 C 480.12193526711525 127.09784869663798 479.67422001694604 127.54556394680719 479.12193526711525 127.54556394680719 C 478.56965051728446 127.54556394680719 478.12193526711525 127.09784869663798 478.12193526711525 126.54556394680719 C 478.12193526711525 125.9932791969764 478.56965051728446 125.54556394680719 479.12193526711525 125.54556394680719 C 479.67422001694604 125.54556394680719 480.12193526711525 125.9932791969764 480.12193526711525 126.54556394680719 Z" stroke-opacity="1" stroke-linecap="square" stroke-miterlimit="10" stroke-width="0.5"/><path fill="none" stroke="rgb(255,255,255)" paint-order="fill stroke markers" d=" M 497.3963489845016 163.73865440229042 C 497.3963489845016 164.2909391521212 496.9486337343324 164.73865440229042 496.3963489845016 164.73865440229042 C 495.84406423467084 164.73865440229042 495.3963489845016 164.2909391521212 495.3963489845016 163.73865440229042 C 495.3963489845016 163.18636965245963 495.84406423467084 162.73865440229042 496.3963489845016 162.73865440229042 C 496.9486337343324 162.73865440229042 497.3963489845016 163.18636965245963 497.3963489845016 163.73865440229042 Z" stroke-opacity="1" stroke-linecap="square" stroke-miterlimit="10" stroke-width="0.5"/><path fill="none" stroke="rgb(255,255,255)" paint-order="fill stroke markers" d=" M 495.69031459820576 112.70700454139308 C 495.69031459820576 113.25928929122387 495.24259934803655 113.70700454139308 494.69031459820576 113.70700454139308 C 494.13802984837497 113.70700454139308 493.69031459820576 113.25928929122387 493.69031459820576 112.70700454139308 C 493.69031459820576 112.15471979156229 494.13802984837497 111.70700454139308 494.69031459820576 111.70700454139308 C 495.24259934803655 111.70700454139308 495.69031459820576 112.15471979156229 495.69031459820576 112.70700454139308 Z" stroke-opacity="1" stroke-linecap="square" stroke-miterlimit="10" stroke-width="0.5"/><path fill="none" stroke="rgb(255,255,255)" paint-order="fill stroke markers" d=" M 489.8874568303437 110.90665427943031 C 489.8874568303437 111.4589390292611 489.4397415801745 111.90665427943031 488.8874568303437 111.90665427943031 C 488.3351720805129 111.90665427943031 487.8874568303437 111.4589390292611 487.8874568303437 110.90665427943031 C 487.8874568303437 110.35436952959952 488.3351720805129 109.90665427943031 488.8874568303437 109.90665427943031 C 489.4397415801745 109.90665427943031 489.8874568303437 110.35436952959952 489.8874568303437 110.90665427943031 Z" stroke-opacity="1" stroke-linecap="square" stroke-miterlimit="10" stroke-width="0.5"/><path fill="none" stroke="rgb(255,255,255)" paint-order="fill stroke markers" d=" M 462.91914198816653 114.57225047157095 C 462.91914198816653 115.12453522140174 462.4714267379973 115.57225047157095 461.91914198816653 115.57225047157095 C 461.36685723833574 115.57225047157095 460.91914198816653 115.12453522140174 460.91914198816653 114.57225047157095 C 460.91914198816653 114.01996572174016 461.36685723833574 113.57225047157095 461.91914198816653 113.57225047157095 C 462.4714267379973 113.57225047157095 462.91914198816653 114.01996572174016 462.91914198816653 114.57225047157095 Z" stroke-opacity="1" stroke-linecap="square" stroke-miterlimit="10" stroke-width="0.5"/><path fill="none" stroke="rgb(255,255,255)" paint-order="fill stroke markers" d=" M 448.5185855190428 141.8023936131875 C 448.5185855190428 142.35467836301828 448.0708702688736 142.8023936131875 447.5185855190428 142.8023936131875 C 446.966300769212 142.8023936131875 446.5185855190428 142.35467836301828 446.5185855190428 141.8023936131875 C 446.5185855190428 141.2501088633567 446.966300769212 140.8023936131875 447.5185855190428 140.8023936131875 C 448.0708702688736 140.8023936131875 448.5185855190428 141.2501088633567 448.5185855190428 141.8023936131875 Z" stroke-opacity="1" stroke-linecap="square" stroke-miterlimit="10" stroke-width="0.5"/></g></g></svg>